Coordinates
version=1
nRows=11
nColumns=63
inDegrees=yes

Units are S.I. units (second, meters, Newtons, ...)
If the header above contains a line with 'inDegrees', this indicates whether rotational values are in degrees (yes) or radians (no).

endheader
time	pelvis_tilt	pelvis_list	pelvis_rotation	pelvis_tx	pelvis_ty	pelvis_tz	hip_flexion_r	hip_adduction_r	hip_rotation_r	knee_angle_r	knee_angle_r_beta	ankle_angle_r	subtalar_angle_r	mtp_angle_r	hip_flexion_l	hip_adduction_l	hip_rotation_l	knee_angle_l	knee_angle_l_beta	ankle_angle_l	subtalar_angle_l	mtp_angle_l	L5_S1_Flex_Ext	L5_S1_Lat_Bending	L5_S1_axial_rotation	L4_L5_Flex_Ext	L4_L5_Lat_Bending	L4_L5_axial_rotation	L3_L4_Flex_Ext	L3_L4_Lat_Bending	L3_L4_axial_rotation	L2_L3_Flex_Ext	L2_L3_Lat_Bending	L2_L3_axial_rotation	L1_L2_Flex_Ext	L1_L2_Lat_Bending	L1_L2_axial_rotation	L1_T12_Flex_Ext	L1_T12_Lat_Bending	L1_T12_axial_rotation	Abs_r3	Abs_r2	Abs_r1	Abs_t1	Abs_t2	neck_flexion	neck_bending	neck_rotation	arm_flex_r	arm_add_r	arm_rot_r	elbow_flex_r	pro_sup_r	wrist_flex_r	wrist_dev_r	arm_flex_l	arm_add_l	arm_rot_l	elbow_flex_l	pro_sup_l	wrist_flex_l	wrist_dev_l
0.000000	-1.793867	-3.664441	93.366508	0.119088	0.993163	0.405607	-0.638559	2.140697	5.387967	0.856601	0.014951	18.011512	-12.325475	0.000000	1.896686	-2.860437	6.428965	1.411043	0.024627	25.133004	2.794235	0.000000	0.179088	0.232470	-0.249230	0.332585	0.309185	-0.264806	0.294224	0.565227	-0.264806	0.204680	0.565227	-0.218076	0.166301	0.474052	-0.202499	0.102331	0.360096	-0.186922	1.279209	2.629745	-1.386140	0.000000	0.000000	22.237961	2.733501	4.859533	18.011201	-12.640207	92.044013	42.574404	21.787862	-0.280640	-0.877302	15.547036	-6.075033	76.812678	35.216959	86.098196	0.840529	-4.626138
0.016949	-1.442546	-3.757741	94.173908	0.117494	0.993492	0.406526	-0.349985	2.368940	5.140598	0.888742	0.015511	17.937908	-12.453147	0.000000	2.855196	-3.171978	4.720250	2.680205	0.046778	26.311811	5.967428	0.000000	0.181740	0.281594	-0.368481	0.337510	0.374520	-0.391511	0.298581	0.684667	-0.391511	0.207711	0.684667	-0.322421	0.168764	0.574226	-0.299391	0.103846	0.436189	-0.276361	1.298154	3.185444	-2.049380	0.000000	0.000000	22.330259	2.570250	5.072738	18.115244	-13.010213	92.071594	42.589835	22.937017	0.185985	-0.624677	15.621280	-5.623609	76.551688	34.904996	86.080469	0.742203	-4.137517
0.033898	-1.156339	-3.819615	94.885443	0.116104	0.993770	0.407246	-0.145395	2.557969	4.876694	0.903976	0.015777	17.862552	-12.582335	0.000000	3.645440	-3.423241	3.337349	3.754808	0.065534	27.315798	8.618615	0.000000	0.183273	0.321740	-0.478487	0.340357	0.427914	-0.508392	0.301099	0.782278	-0.508392	0.209463	0.782278	-0.418676	0.170187	0.656092	-0.388771	0.104722	0.498375	-0.358865	1.309102	3.639585	-2.661201	0.000000	0.000000	22.386809	2.442538	5.258566	18.211048	-13.293307	92.165928	42.590302	24.181788	0.439664	-0.528393	15.691778	-5.265520	76.419060	34.636429	86.086858	0.615768	-3.810507
0.050847	-0.929643	-3.853317	95.505784	0.114907	0.993996	0.407784	-0.016442	2.711191	4.600842	0.904361	0.015784	17.784907	-12.712327	0.000000	4.281090	-3.619727	2.250507	4.649939	0.081157	28.157482	10.788676	0.000000	0.183797	0.353680	-0.579555	0.341329	0.470395	-0.615777	0.301959	0.859939	-0.615777	0.210061	0.859939	-0.507110	0.170674	0.721225	-0.470888	0.105021	0.547851	-0.434666	1.312841	4.000904	-3.223309	0.000000	0.000000	22.411424	2.346507	5.418724	18.300006	-13.496775	92.320741	42.576892	25.504733	0.504539	-0.569565	15.756564	-4.993205	76.394301	34.409375	86.113299	0.469411	-3.624300
0.067797	-0.756855	-3.862100	96.039604	0.113893	0.994175	0.408162	0.045221	2.832014	4.317628	0.891953	0.015568	17.704434	-12.842415	0.000000	4.775820	-3.766937	1.429972	5.380682	0.093911	28.849383	12.518494	0.000000	0.183421	0.378188	-0.671990	0.340632	0.502990	-0.713990	0.301343	0.919527	-0.713990	0.209632	0.919527	-0.587991	0.170325	0.771201	-0.545992	0.104807	0.585813	-0.503993	1.310161	4.278140	-3.737408	0.000000	0.000000	22.407917	2.278294	5.554917	18.383508	-13.627905	92.529759	42.550692	26.888407	0.404757	-0.729310	15.813670	-4.799103	76.456919	34.221945	86.155722	0.311321	-3.558086
0.084746	-0.632373	-3.849220	96.491576	0.113048	0.994308	0.408398	0.047942	2.923844	4.031637	0.868809	0.015164	17.620596	-12.971887	0.000000	5.143303	-3.870374	0.845987	5.962123	0.104059	29.404018	13.848949	0.000000	0.182258	0.396035	-0.756100	0.338471	0.526727	-0.803357	0.299431	0.962920	-0.803357	0.208302	0.962920	-0.661588	0.169245	0.807595	-0.614332	0.104142	0.613459	-0.567075	1.301850	4.480030	-4.205204	0.000000	0.000000	22.380102	2.234041	5.668849	18.462947	-13.693985	92.786709	42.512790	28.315365	0.164460	-0.988743	15.861130	-4.675653	76.586422	34.072257	86.210061	0.149686	-3.591058
0.101695	-0.550595	-3.817930	96.866371	0.112364	0.994397	0.408512	0.000066	2.990087	3.747456	0.836986	0.014608	17.532856	-13.100033	0.000000	5.397211	-3.935539	0.468799	6.409346	0.111864	29.833907	14.820923	0.000000	0.180416	0.407994	-0.832192	0.335051	0.542632	-0.884204	0.296406	0.991997	-0.884204	0.206198	0.991997	-0.728168	0.167535	0.831982	-0.676156	0.103090	0.631983	-0.624144	1.288696	4.615312	-4.628402	0.000000	0.000000	22.331791	2.209886	5.762227	18.539714	-13.702301	93.085317	42.464272	29.768164	-0.192206	-1.328982	15.896976	-4.615293	76.762317	33.958423	86.272250	-0.007308	-3.702405
0.118644	-0.505920	-3.771484	97.168662	0.111827	0.994445	0.408522	-0.090058	3.034150	3.469670	0.798541	0.013937	17.440674	-13.226144	0.000000	5.551218	-3.967933	0.268655	6.737438	0.117590	30.151567	15.475296	0.000000	0.178008	0.414837	-0.900571	0.330578	0.551734	-0.956857	0.292449	1.008635	-0.956857	0.203445	1.008635	-0.788000	0.165298	0.845936	-0.731714	0.101714	0.642583	-0.675429	1.271490	4.692723	-5.008708	0.000000	0.000000	22.266799	2.201968	5.836754	18.615200	-13.660140	93.419310	42.406225	31.229359	-0.641097	-1.731142	15.919241	-4.610462	76.964111	33.878559	86.338220	-0.151471	-3.871320
0.135593	-0.492744	-3.713136	97.403120	0.111428	0.994454	0.408450	-0.214085	3.059441	3.202865	0.755532	0.013187	17.343515	-13.349508	0.000000	5.618998	-3.973059	0.215798	6.961482	0.121501	30.369517	15.852951	0.000000	0.175142	0.417337	-0.961545	0.325256	0.555058	-1.021642	0.287740	1.014713	-1.021642	0.200169	1.014713	-0.841352	0.162637	0.851034	-0.781255	0.100076	0.646455	-0.721159	1.251019	4.721000	-5.347826	0.000000	0.000000	22.188939	2.206429	5.894138	18.690798	-13.574790	93.782415	42.339737	32.681505	-1.158070	-2.176339	15.925960	-4.653599	77.171313	33.830780	86.403905	-0.274616	-4.076993
0.152542	-0.505466	-3.646141	97.574418	0.111154	0.994427	0.408313	-0.363666	3.069366	2.951628	0.710014	0.012392	17.240839	-13.469417	0.000000	5.614222	-3.956419	0.280476	7.096565	0.123858	30.500276	15.994768	0.000000	0.171929	0.416266	-1.015420	0.319290	0.553633	-1.078884	0.282462	1.012109	-1.078884	0.196498	1.012109	-0.888493	0.159653	0.848849	-0.825029	0.098240	0.644796	-0.761565	1.228073	4.708881	-5.647462	0.000000	0.000000	22.102023	2.219406	5.936082	18.767899	-13.453538	94.168358	42.265895	34.107159	-1.718979	-2.645690	15.915164	-4.737142	77.363431	33.813199	86.465238	-0.368556	-4.298616
0.169492	-0.538483	-3.573751	97.687229	0.110994	0.994364	0.408131	-0.530455	3.067332	2.720545	0.664044	0.011590	17.132109	-13.585159	0.000000	5.550564	-3.923513	0.432933	7.157771	0.124927	30.556362	15.941628	0.000000	0.168481	0.412396	-1.062503	0.312885	0.548486	-1.128909	0.276797	1.002699	-1.128909	0.192556	1.002699	-0.929690	0.156451	0.840958	-0.863283	0.096270	0.638801	-0.796877	1.203439	4.665104	-5.909320	0.000000	0.000000	22.009866	2.237040	5.964291	18.847894	-13.303671	94.570866	42.185785	35.488877	-2.299680	-3.120310	15.884887	-4.853531	77.519971	33.823931	86.518152	-0.425102	-4.515380
